<svg width="374" height="335" viewBox="0 0 374 335" fill="none" xmlns="http://www.w3.org/2000/svg">
<g filter="url(#filter0_d_1_2919)">
<g clip-path="url(#clip0_1_2919)">
<rect x="85" y="69" width="233.333" height="217" rx="10" fill="white"/>
<path d="M109.477 115.167V103.57H112.972C113.898 103.57 114.692 103.717 115.357 104.011C116.032 104.305 116.549 104.724 116.908 105.269C117.268 105.813 117.447 106.461 117.447 107.212C117.447 107.681 117.36 108.122 117.186 108.535C117.023 108.938 116.783 109.303 116.467 109.63C116.162 109.956 115.792 110.223 115.357 110.43L118.052 115.167H115.847L113.609 110.953C113.489 110.964 113.353 110.974 113.201 110.985C113.059 110.985 112.912 110.985 112.76 110.985C112.379 110.985 111.938 110.947 111.437 110.871V115.167H109.477ZM111.437 105.301V109.14C111.665 109.183 111.899 109.216 112.139 109.238C112.389 109.249 112.634 109.254 112.874 109.254C113.68 109.254 114.306 109.08 114.752 108.731C115.199 108.383 115.422 107.898 115.422 107.278C115.422 106.657 115.204 106.172 114.769 105.824C114.333 105.476 113.723 105.301 112.939 105.301H111.437ZM123.22 115.412C122.589 115.412 122.006 115.303 121.473 115.085C120.95 114.856 120.493 114.541 120.101 114.138C119.709 113.735 119.404 113.261 119.186 112.717C118.979 112.161 118.876 111.552 118.876 110.887C118.876 110.245 118.979 109.651 119.186 109.107C119.404 108.563 119.698 108.089 120.068 107.686C120.449 107.272 120.895 106.951 121.407 106.722C121.919 106.494 122.474 106.379 123.073 106.379C123.672 106.379 124.217 106.488 124.707 106.706C125.207 106.913 125.638 107.212 125.997 107.604C126.367 107.996 126.65 108.465 126.846 109.009C127.042 109.543 127.14 110.136 127.14 110.789V111.345H120.819C120.874 111.846 121.004 112.281 121.211 112.651C121.429 113.011 121.707 113.288 122.044 113.484C122.382 113.68 122.774 113.778 123.22 113.778C124.113 113.778 124.81 113.381 125.311 112.586L126.961 113.223C126.765 113.669 126.476 114.061 126.095 114.399C125.725 114.726 125.289 114.976 124.788 115.15C124.298 115.325 123.776 115.412 123.22 115.412ZM123.073 107.898C122.692 107.898 122.349 107.985 122.044 108.16C121.75 108.334 121.5 108.579 121.293 108.895C121.086 109.21 120.944 109.581 120.868 110.005H125.18C125.115 109.581 124.99 109.21 124.805 108.895C124.619 108.579 124.374 108.334 124.07 108.16C123.776 107.985 123.443 107.898 123.073 107.898ZM130.784 115.167L127.942 106.624H129.902L131.715 112.864L133.626 106.624H135.308L137.203 112.864L139.049 106.624H140.943L138.085 115.167H136.321L134.443 108.96L132.548 115.167H130.784ZM144.546 115.412C144.111 115.412 143.708 115.346 143.338 115.216C142.978 115.085 142.662 114.9 142.39 114.66C142.118 114.421 141.906 114.138 141.753 113.811C141.601 113.484 141.525 113.125 141.525 112.733C141.525 112.189 141.666 111.715 141.949 111.312C142.243 110.898 142.652 110.577 143.174 110.348C143.697 110.12 144.307 110.005 145.004 110.005C145.385 110.005 145.749 110.043 146.098 110.12C146.446 110.185 146.778 110.283 147.094 110.414V109.875C147.094 109.494 147.023 109.161 146.882 108.878C146.74 108.584 146.539 108.356 146.278 108.192C146.016 108.029 145.7 107.947 145.33 107.947C144.938 107.947 144.584 108.051 144.269 108.258C143.953 108.465 143.719 108.753 143.566 109.123L141.835 108.731C141.966 108.252 142.2 107.838 142.537 107.49C142.886 107.142 143.299 106.869 143.779 106.673C144.269 106.477 144.797 106.379 145.363 106.379C145.896 106.379 146.381 106.466 146.817 106.641C147.263 106.815 147.644 107.06 147.96 107.376C148.276 107.691 148.521 108.067 148.695 108.503C148.869 108.938 148.956 109.423 148.956 109.956V115.167H147.241L147.176 114.04C146.947 114.453 146.604 114.786 146.147 115.036C145.69 115.286 145.156 115.412 144.546 115.412ZM143.419 112.651C143.419 112.891 143.485 113.109 143.615 113.305C143.746 113.49 143.926 113.637 144.154 113.746C144.394 113.855 144.671 113.909 144.987 113.909C145.39 113.909 145.749 113.822 146.065 113.648C146.381 113.473 146.631 113.239 146.817 112.945C147.002 112.64 147.094 112.297 147.094 111.916V111.72C146.811 111.601 146.517 111.508 146.212 111.443C145.918 111.366 145.613 111.328 145.298 111.328C144.731 111.328 144.274 111.448 143.926 111.688C143.588 111.927 143.419 112.248 143.419 112.651ZM150.977 115.167V106.624H152.692L152.774 108.029C152.991 107.55 153.291 107.18 153.672 106.918C154.064 106.646 154.521 106.51 155.044 106.51C155.207 106.51 155.365 106.521 155.518 106.543C155.67 106.564 155.806 106.603 155.926 106.657L155.714 108.486C155.594 108.443 155.469 108.416 155.338 108.405C155.207 108.383 155.077 108.372 154.946 108.372C154.293 108.372 153.781 108.59 153.411 109.025C153.04 109.461 152.855 110.065 152.855 110.838V115.167H150.977ZM160.664 115.412C160.097 115.412 159.569 115.297 159.079 115.069C158.6 114.84 158.181 114.524 157.822 114.121C157.462 113.718 157.179 113.245 156.972 112.7C156.776 112.156 156.678 111.568 156.678 110.936C156.678 110.294 156.782 109.695 156.989 109.14C157.196 108.584 157.484 108.1 157.854 107.686C158.225 107.272 158.655 106.951 159.145 106.722C159.646 106.494 160.185 106.379 160.762 106.379C161.328 106.379 161.845 106.499 162.313 106.739C162.782 106.978 163.168 107.316 163.473 107.751V103.015H165.351V115.167H163.636L163.555 113.795C163.25 114.296 162.847 114.693 162.346 114.987C161.845 115.27 161.284 115.412 160.664 115.412ZM161.056 113.713C161.524 113.713 161.943 113.593 162.313 113.354C162.684 113.103 162.972 112.766 163.179 112.341C163.397 111.916 163.506 111.437 163.506 110.904C163.506 110.359 163.397 109.875 163.179 109.45C162.972 109.025 162.684 108.693 162.313 108.454C161.943 108.203 161.524 108.078 161.056 108.078C160.587 108.078 160.168 108.203 159.798 108.454C159.428 108.693 159.134 109.025 158.916 109.45C158.709 109.875 158.606 110.359 158.606 110.904C158.606 111.437 158.709 111.916 158.916 112.341C159.134 112.766 159.428 113.103 159.798 113.354C160.168 113.593 160.587 113.713 161.056 113.713ZM171.343 115.412C170.711 115.412 170.129 115.303 169.595 115.085C169.073 114.856 168.615 114.541 168.223 114.138C167.831 113.735 167.526 113.261 167.309 112.717C167.102 112.161 166.998 111.552 166.998 110.887C166.998 110.245 167.102 109.651 167.309 109.107C167.526 108.563 167.82 108.089 168.191 107.686C168.572 107.272 169.018 106.951 169.53 106.722C170.042 106.494 170.597 106.379 171.196 106.379C171.795 106.379 172.339 106.488 172.829 106.706C173.33 106.913 173.76 107.212 174.12 107.604C174.49 107.996 174.773 108.465 174.969 109.009C175.165 109.543 175.263 110.136 175.263 110.789V111.345H168.942C168.996 111.846 169.127 112.281 169.334 112.651C169.552 113.011 169.829 113.288 170.167 113.484C170.505 113.68 170.897 113.778 171.343 113.778C172.236 113.778 172.933 113.381 173.434 112.586L175.083 113.223C174.887 113.669 174.599 114.061 174.218 114.399C173.847 114.726 173.412 114.976 172.911 115.15C172.421 115.325 171.898 115.412 171.343 115.412ZM171.196 107.898C170.815 107.898 170.472 107.985 170.167 108.16C169.873 108.334 169.623 108.579 169.416 108.895C169.209 109.21 169.067 109.581 168.991 110.005H173.303C173.238 109.581 173.112 109.21 172.927 108.895C172.742 108.579 172.497 108.334 172.192 108.16C171.898 107.985 171.566 107.898 171.196 107.898ZM180.554 115.412C179.988 115.412 179.46 115.297 178.97 115.069C178.491 114.84 178.071 114.524 177.712 114.121C177.353 113.718 177.07 113.245 176.863 112.7C176.667 112.156 176.569 111.568 176.569 110.936C176.569 110.294 176.672 109.695 176.879 109.14C177.086 108.584 177.374 108.1 177.745 107.686C178.115 107.272 178.545 106.951 179.035 106.722C179.536 106.494 180.075 106.379 180.652 106.379C181.218 106.379 181.735 106.499 182.204 106.739C182.672 106.978 183.058 107.316 183.363 107.751V103.015H185.242V115.167H183.527L183.445 113.795C183.14 114.296 182.737 114.693 182.236 114.987C181.735 115.27 181.175 115.412 180.554 115.412ZM180.946 113.713C181.414 113.713 181.833 113.593 182.204 113.354C182.574 113.103 182.862 112.766 183.069 112.341C183.287 111.916 183.396 111.437 183.396 110.904C183.396 110.359 183.287 109.875 183.069 109.45C182.862 109.025 182.574 108.693 182.204 108.454C181.833 108.203 181.414 108.078 180.946 108.078C180.478 108.078 180.059 108.203 179.688 108.454C179.318 108.693 179.024 109.025 178.806 109.45C178.599 109.875 178.496 110.359 178.496 110.904C178.496 111.437 178.599 111.916 178.806 112.341C179.024 112.766 179.318 113.103 179.688 113.354C180.059 113.593 180.478 113.713 180.946 113.713ZM112.907 137.003C112.351 137.003 111.834 136.894 111.355 136.677C110.876 136.459 110.457 136.159 110.097 135.778C109.738 135.386 109.46 134.934 109.264 134.423C109.068 133.9 108.97 133.334 108.97 132.724C108.97 132.114 109.068 131.548 109.264 131.025C109.471 130.492 109.76 130.029 110.13 129.637C110.5 129.245 110.93 128.94 111.42 128.722C111.91 128.494 112.438 128.379 113.005 128.379C113.593 128.379 114.126 128.51 114.605 128.771C115.095 129.022 115.487 129.376 115.781 129.833L115.847 128.624H117.562V136.268C117.562 136.922 117.458 137.515 117.251 138.049C117.044 138.593 116.75 139.056 116.369 139.437C115.988 139.829 115.531 140.128 114.997 140.335C114.475 140.542 113.887 140.646 113.233 140.646C112.362 140.646 111.6 140.45 110.947 140.058C110.293 139.666 109.782 139.121 109.411 138.424L111.192 137.804C111.431 138.196 111.731 138.49 112.09 138.686C112.449 138.893 112.852 138.996 113.299 138.996C113.778 138.996 114.197 138.887 114.556 138.669C114.916 138.462 115.193 138.163 115.389 137.771C115.585 137.39 115.683 136.938 115.683 136.415V135.599C115.378 136.034 114.986 136.377 114.507 136.628C114.028 136.878 113.495 137.003 112.907 137.003ZM113.299 135.305C113.756 135.305 114.164 135.19 114.524 134.962C114.894 134.733 115.182 134.423 115.389 134.031C115.607 133.639 115.716 133.192 115.716 132.691C115.716 132.19 115.607 131.744 115.389 131.352C115.182 130.96 114.894 130.65 114.524 130.421C114.164 130.192 113.756 130.078 113.299 130.078C112.841 130.078 112.433 130.192 112.074 130.421C111.714 130.65 111.426 130.96 111.208 131.352C111.001 131.744 110.898 132.19 110.898 132.691C110.898 133.192 111.001 133.639 111.208 134.031C111.426 134.423 111.714 134.733 112.074 134.962C112.433 135.19 112.841 135.305 113.299 135.305ZM119.586 137.167V128.624H121.301L121.383 130.029C121.601 129.55 121.9 129.18 122.281 128.918C122.673 128.646 123.131 128.51 123.653 128.51C123.817 128.51 123.974 128.521 124.127 128.543C124.279 128.564 124.415 128.603 124.535 128.657L124.323 130.486C124.203 130.443 124.078 130.416 123.947 130.405C123.817 130.383 123.686 130.372 123.555 130.372C122.902 130.372 122.39 130.59 122.02 131.025C121.65 131.461 121.465 132.065 121.465 132.838V137.167H119.586ZM129.632 137.412C129.012 137.412 128.435 137.303 127.901 137.085C127.378 136.856 126.921 136.541 126.529 136.138C126.137 135.724 125.832 135.245 125.614 134.7C125.397 134.145 125.288 133.541 125.288 132.887C125.288 132.245 125.397 131.651 125.614 131.107C125.832 130.552 126.137 130.073 126.529 129.67C126.932 129.256 127.4 128.94 127.934 128.722C128.478 128.494 129.066 128.379 129.698 128.379C130.318 128.379 130.89 128.494 131.413 128.722C131.946 128.94 132.409 129.256 132.801 129.67C133.193 130.073 133.498 130.546 133.716 131.091C133.933 131.635 134.042 132.234 134.042 132.887C134.042 133.541 133.933 134.145 133.716 134.7C133.498 135.245 133.188 135.724 132.785 136.138C132.393 136.541 131.924 136.856 131.38 137.085C130.846 137.303 130.264 137.412 129.632 137.412ZM129.665 135.713C130.133 135.713 130.552 135.593 130.923 135.354C131.293 135.103 131.581 134.766 131.788 134.341C132.006 133.916 132.115 133.432 132.115 132.887C132.115 132.343 132.006 131.864 131.788 131.45C131.581 131.025 131.293 130.693 130.923 130.454C130.552 130.203 130.133 130.078 129.665 130.078C129.197 130.078 128.778 130.203 128.407 130.454C128.037 130.693 127.743 131.025 127.525 131.45C127.318 131.864 127.215 132.343 127.215 132.887C127.215 133.432 127.318 133.916 127.525 134.341C127.743 134.766 128.037 135.103 128.407 135.354C128.778 135.593 129.197 135.713 129.665 135.713ZM137.531 137.167L134.689 128.624H136.649L138.462 134.864L140.373 128.624H142.055L143.95 134.864L145.796 128.624H147.69L144.832 137.167H143.068L141.19 130.96L139.295 137.167H137.531ZM152.782 137.412C151.922 137.412 151.247 137.167 150.757 136.677C150.267 136.176 150.022 135.463 150.022 134.537V130.143H148.519V128.624H150.022V125.733H151.9V128.624H154.383V130.143H151.9V134.341C151.9 134.798 151.993 135.152 152.178 135.403C152.374 135.642 152.657 135.762 153.027 135.762C153.223 135.762 153.436 135.735 153.664 135.68C153.893 135.615 154.105 135.528 154.301 135.419L154.726 136.84C154.475 137.014 154.181 137.15 153.844 137.248C153.517 137.357 153.163 137.412 152.782 137.412ZM156.209 137.167V125.015H158.087V129.653C158.348 129.261 158.697 128.951 159.132 128.722C159.568 128.494 160.058 128.379 160.602 128.379C161.245 128.379 161.8 128.532 162.268 128.837C162.747 129.142 163.118 129.572 163.379 130.127C163.64 130.682 163.771 131.336 163.771 132.087V137.167H161.893V132.299C161.893 131.602 161.735 131.058 161.419 130.666C161.114 130.274 160.684 130.078 160.129 130.078C159.737 130.078 159.383 130.171 159.067 130.356C158.762 130.541 158.523 130.791 158.348 131.107C158.174 131.423 158.087 131.788 158.087 132.201V137.167H156.209ZM172.833 137.003C172.277 137.003 171.76 136.894 171.281 136.677C170.802 136.459 170.383 136.159 170.023 135.778C169.664 135.386 169.386 134.934 169.19 134.423C168.994 133.9 168.896 133.334 168.896 132.724C168.896 132.114 168.994 131.548 169.19 131.025C169.397 130.492 169.686 130.029 170.056 129.637C170.426 129.245 170.856 128.94 171.346 128.722C171.836 128.494 172.365 128.379 172.931 128.379C173.519 128.379 174.052 128.51 174.531 128.771C175.021 129.022 175.413 129.376 175.707 129.833L175.773 128.624H177.488V136.268C177.488 136.922 177.384 137.515 177.177 138.049C176.971 138.593 176.677 139.056 176.295 139.437C175.914 139.829 175.457 140.128 174.923 140.335C174.401 140.542 173.813 140.646 173.159 140.646C172.288 140.646 171.526 140.45 170.873 140.058C170.219 139.666 169.708 139.121 169.337 138.424L171.118 137.804C171.357 138.196 171.657 138.49 172.016 138.686C172.375 138.893 172.778 138.996 173.225 138.996C173.704 138.996 174.123 138.887 174.482 138.669C174.842 138.462 175.119 138.163 175.315 137.771C175.511 137.39 175.609 136.938 175.609 136.415V135.599C175.305 136.034 174.913 136.377 174.433 136.628C173.954 136.878 173.421 137.003 172.833 137.003ZM173.225 135.305C173.682 135.305 174.09 135.19 174.45 134.962C174.82 134.733 175.109 134.423 175.315 134.031C175.533 133.639 175.642 133.192 175.642 132.691C175.642 132.19 175.533 131.744 175.315 131.352C175.109 130.96 174.82 130.65 174.45 130.421C174.09 130.192 173.682 130.078 173.225 130.078C172.767 130.078 172.359 130.192 172 130.421C171.64 130.65 171.352 130.96 171.134 131.352C170.927 131.744 170.824 132.19 170.824 132.691C170.824 133.192 170.927 133.639 171.134 134.031C171.352 134.423 171.64 134.733 172 134.962C172.359 135.19 172.767 135.305 173.225 135.305ZM183.269 137.412C182.507 137.412 181.843 137.248 181.276 136.922C180.721 136.595 180.285 136.132 179.97 135.533C179.665 134.924 179.512 134.21 179.512 133.394V128.624H181.391V133.426C181.391 134.134 181.559 134.695 181.897 135.109C182.235 135.512 182.697 135.713 183.285 135.713C183.873 135.713 184.336 135.512 184.674 135.109C185.011 134.695 185.18 134.134 185.18 133.426V128.624H187.058V133.394C187.058 134.199 186.9 134.907 186.585 135.517C186.28 136.116 185.844 136.584 185.278 136.922C184.712 137.248 184.042 137.412 183.269 137.412ZM191.696 137.412C191.26 137.412 190.858 137.346 190.487 137.216C190.128 137.085 189.812 136.9 189.54 136.66C189.268 136.421 189.055 136.138 188.903 135.811C188.751 135.484 188.674 135.125 188.674 134.733C188.674 134.189 188.816 133.715 189.099 133.312C189.393 132.898 189.801 132.577 190.324 132.348C190.847 132.12 191.456 132.005 192.153 132.005C192.534 132.005 192.899 132.043 193.248 132.12C193.596 132.185 193.928 132.283 194.244 132.414V131.875C194.244 131.494 194.173 131.161 194.032 130.878C193.89 130.584 193.689 130.356 193.427 130.192C193.166 130.029 192.85 129.947 192.48 129.947C192.088 129.947 191.734 130.051 191.418 130.258C191.103 130.465 190.868 130.753 190.716 131.123L188.985 130.731C189.115 130.252 189.349 129.838 189.687 129.49C190.035 129.142 190.449 128.869 190.928 128.673C191.418 128.477 191.946 128.379 192.513 128.379C193.046 128.379 193.531 128.466 193.966 128.641C194.413 128.815 194.794 129.06 195.11 129.376C195.425 129.691 195.67 130.067 195.845 130.503C196.019 130.938 196.106 131.423 196.106 131.956V137.167H194.391L194.326 136.04C194.097 136.453 193.754 136.786 193.297 137.036C192.839 137.286 192.306 137.412 191.696 137.412ZM190.569 134.651C190.569 134.891 190.634 135.109 190.765 135.305C190.896 135.49 191.075 135.637 191.304 135.746C191.544 135.855 191.821 135.909 192.137 135.909C192.54 135.909 192.899 135.822 193.215 135.648C193.531 135.473 193.781 135.239 193.966 134.945C194.151 134.64 194.244 134.297 194.244 133.916V133.72C193.961 133.601 193.667 133.508 193.362 133.443C193.068 133.366 192.763 133.328 192.447 133.328C191.881 133.328 191.424 133.448 191.075 133.688C190.738 133.927 190.569 134.248 190.569 134.651ZM198.127 137.167V128.624H199.842L199.923 130.029C200.141 129.55 200.44 129.18 200.822 128.918C201.214 128.646 201.671 128.51 202.194 128.51C202.357 128.51 202.515 128.521 202.667 128.543C202.82 128.564 202.956 128.603 203.076 128.657L202.863 130.486C202.743 130.443 202.618 130.416 202.488 130.405C202.357 130.383 202.226 130.372 202.096 130.372C201.442 130.372 200.93 130.59 200.56 131.025C200.19 131.461 200.005 132.065 200.005 132.838V137.167H198.127ZM206.865 137.412C206.429 137.412 206.026 137.346 205.656 137.216C205.297 137.085 204.981 136.9 204.709 136.66C204.437 136.421 204.224 136.138 204.072 135.811C203.919 135.484 203.843 135.125 203.843 134.733C203.843 134.189 203.985 133.715 204.268 133.312C204.562 132.898 204.97 132.577 205.493 132.348C206.016 132.12 206.625 132.005 207.322 132.005C207.703 132.005 208.068 132.043 208.417 132.12C208.765 132.185 209.097 132.283 209.413 132.414V131.875C209.413 131.494 209.342 131.161 209.201 130.878C209.059 130.584 208.858 130.356 208.596 130.192C208.335 130.029 208.019 129.947 207.649 129.947C207.257 129.947 206.903 130.051 206.587 130.258C206.271 130.465 206.037 130.753 205.885 131.123L204.154 130.731C204.284 130.252 204.518 129.838 204.856 129.49C205.204 129.142 205.618 128.869 206.097 128.673C206.587 128.477 207.115 128.379 207.682 128.379C208.215 128.379 208.7 128.466 209.135 128.641C209.582 128.815 209.963 129.06 210.279 129.376C210.594 129.691 210.839 130.067 211.014 130.503C211.188 130.938 211.275 131.423 211.275 131.956V137.167H209.56L209.495 136.04C209.266 136.453 208.923 136.786 208.466 137.036C208.008 137.286 207.475 137.412 206.865 137.412ZM205.738 134.651C205.738 134.891 205.803 135.109 205.934 135.305C206.065 135.49 206.244 135.637 206.473 135.746C206.712 135.855 206.99 135.909 207.306 135.909C207.709 135.909 208.068 135.822 208.384 135.648C208.7 135.473 208.95 135.239 209.135 134.945C209.32 134.64 209.413 134.297 209.413 133.916V133.72C209.13 133.601 208.836 133.508 208.531 133.443C208.237 133.366 207.932 133.328 207.616 133.328C207.05 133.328 206.593 133.448 206.244 133.688C205.907 133.927 205.738 134.248 205.738 134.651ZM213.296 137.167V128.624H215.011L215.076 129.8C215.326 129.365 215.675 129.022 216.121 128.771C216.579 128.51 217.101 128.379 217.689 128.379C218.332 128.379 218.887 128.532 219.355 128.837C219.834 129.142 220.205 129.572 220.466 130.127C220.727 130.682 220.858 131.336 220.858 132.087V137.167H218.98V132.299C218.98 131.602 218.822 131.058 218.506 130.666C218.201 130.274 217.771 130.078 217.216 130.078C216.824 130.078 216.47 130.171 216.154 130.356C215.849 130.541 215.609 130.791 215.435 131.107C215.261 131.423 215.174 131.788 215.174 132.201V137.167H213.296ZM226.171 137.412C225.31 137.412 224.635 137.167 224.145 136.677C223.655 136.176 223.41 135.463 223.41 134.537V130.143H221.908V128.624H223.41V125.733H225.289V128.624H227.771V130.143H225.289V134.341C225.289 134.798 225.381 135.152 225.566 135.403C225.762 135.642 226.045 135.762 226.416 135.762C226.612 135.762 226.824 135.735 227.053 135.68C227.281 135.615 227.494 135.528 227.69 135.419L228.114 136.84C227.864 137.014 227.57 137.15 227.232 137.248C226.906 137.357 226.552 137.412 226.171 137.412ZM233.406 137.412C232.775 137.412 232.192 137.303 231.659 137.085C231.136 136.856 230.679 136.541 230.287 136.138C229.895 135.735 229.59 135.261 229.372 134.717C229.165 134.161 229.062 133.552 229.062 132.887C229.062 132.245 229.165 131.651 229.372 131.107C229.59 130.563 229.884 130.089 230.254 129.686C230.635 129.272 231.082 128.951 231.593 128.722C232.105 128.494 232.661 128.379 233.259 128.379C233.858 128.379 234.403 128.488 234.893 128.706C235.394 128.913 235.824 129.212 236.183 129.604C236.553 129.996 236.836 130.465 237.032 131.009C237.228 131.543 237.326 132.136 237.326 132.789V133.345H231.005C231.06 133.846 231.191 134.281 231.397 134.651C231.615 135.011 231.893 135.288 232.23 135.484C232.568 135.68 232.96 135.778 233.406 135.778C234.299 135.778 234.996 135.381 235.497 134.586L237.147 135.223C236.951 135.669 236.662 136.061 236.281 136.399C235.911 136.726 235.475 136.976 234.974 137.15C234.484 137.325 233.962 137.412 233.406 137.412ZM233.259 129.898C232.878 129.898 232.535 129.985 232.23 130.16C231.936 130.334 231.686 130.579 231.479 130.895C231.272 131.21 231.131 131.581 231.054 132.005H235.366C235.301 131.581 235.176 131.21 234.991 130.895C234.806 130.579 234.561 130.334 234.256 130.16C233.962 129.985 233.63 129.898 233.259 129.898ZM242.977 137.412C242.345 137.412 241.763 137.303 241.229 137.085C240.706 136.856 240.249 136.541 239.857 136.138C239.465 135.735 239.16 135.261 238.942 134.717C238.736 134.161 238.632 133.552 238.632 132.887C238.632 132.245 238.736 131.651 238.942 131.107C239.16 130.563 239.454 130.089 239.824 129.686C240.206 129.272 240.652 128.951 241.164 128.722C241.676 128.494 242.231 128.379 242.83 128.379C243.429 128.379 243.973 128.488 244.463 128.706C244.964 128.913 245.394 129.212 245.753 129.604C246.124 129.996 246.407 130.465 246.603 131.009C246.799 131.543 246.897 132.136 246.897 132.789V133.345H240.576C240.63 133.846 240.761 134.281 240.968 134.651C241.186 135.011 241.463 135.288 241.801 135.484C242.138 135.68 242.53 135.778 242.977 135.778C243.87 135.778 244.567 135.381 245.067 134.586L246.717 135.223C246.521 135.669 246.233 136.061 245.851 136.399C245.481 136.726 245.046 136.976 244.545 137.15C244.055 137.325 243.532 137.412 242.977 137.412ZM242.83 129.898C242.449 129.898 242.106 129.985 241.801 130.16C241.507 130.334 241.256 130.579 241.049 130.895C240.843 131.21 240.701 131.581 240.625 132.005H244.937C244.871 131.581 244.746 131.21 244.561 130.895C244.376 130.579 244.131 130.334 243.826 130.16C243.532 129.985 243.2 129.898 242.83 129.898ZM252.188 137.412C251.622 137.412 251.093 137.297 250.603 137.069C250.124 136.84 249.705 136.524 249.346 136.121C248.986 135.718 248.703 135.245 248.496 134.7C248.3 134.156 248.202 133.568 248.202 132.936C248.202 132.294 248.306 131.695 248.513 131.14C248.72 130.584 249.008 130.1 249.378 129.686C249.749 129.272 250.179 128.951 250.669 128.722C251.17 128.494 251.709 128.379 252.286 128.379C252.852 128.379 253.369 128.499 253.837 128.739C254.306 128.978 254.692 129.316 254.997 129.751V125.015H256.875V137.167H255.16L255.079 135.795C254.774 136.296 254.371 136.693 253.87 136.987C253.369 137.27 252.808 137.412 252.188 137.412ZM252.58 135.713C253.048 135.713 253.467 135.593 253.837 135.354C254.208 135.103 254.496 134.766 254.703 134.341C254.921 133.916 255.03 133.437 255.03 132.904C255.03 132.359 254.921 131.875 254.703 131.45C254.496 131.025 254.208 130.693 253.837 130.454C253.467 130.203 253.048 130.078 252.58 130.078C252.112 130.078 251.692 130.203 251.322 130.454C250.952 130.693 250.658 131.025 250.44 131.45C250.233 131.875 250.13 132.359 250.13 132.904C250.13 133.437 250.233 133.916 250.44 134.341C250.658 134.766 250.952 135.103 251.322 135.354C251.692 135.593 252.112 135.713 252.58 135.713Z" fill="#060640"/>
<path d="M108.333 211.333C108.333 209.4 109.9 207.833 111.833 207.833C113.766 207.833 115.333 209.4 115.333 211.333V277.833H108.333V211.333Z" fill="url(#paint0_linear_1_2919)"/>
<path d="M134 192.667C134 190.734 135.567 189.167 137.5 189.167C139.433 189.167 141 190.734 141 192.667V277.833H134V192.667Z" fill="url(#paint1_linear_1_2919)"/>
<path d="M159.667 193.833C159.667 191.9 161.234 190.333 163.167 190.333C165.1 190.333 166.667 191.9 166.667 193.833V277.833H159.667V193.833Z" fill="url(#paint2_linear_1_2919)"/>
<path d="M185.333 210.167C185.333 208.234 186.9 206.667 188.833 206.667C190.766 206.667 192.333 208.234 192.333 210.167V277.833H185.333V210.167Z" fill="url(#paint3_linear_1_2919)"/>
<path d="M211 203.167C211 201.234 212.567 199.667 214.5 199.667C216.433 199.667 218 201.234 218 203.167V277.833H211V203.167Z" fill="url(#paint4_linear_1_2919)"/>
<path d="M262.333 167C262.333 165.067 263.9 163.5 265.833 163.5C267.766 163.5 269.333 165.067 269.333 167V277.833H262.333V167Z" fill="url(#paint5_linear_1_2919)"/>
<path d="M288 171.667C288 169.734 289.567 168.167 291.5 168.167C293.433 168.167 295 169.734 295 171.667V277.833H288V171.667Z" fill="url(#paint6_linear_1_2919)"/>
<path d="M78 262.667C78 262.667 109.477 188.115 149.75 188.583C170.777 188.828 178.403 211.61 199.333 209.583C227.231 206.882 222.059 159.301 250.083 158.833C264.932 158.586 270.863 173.436 285.667 172.25C307.986 170.462 326.5 132 326.5 132" stroke="#FF4755" stroke-width="1.75"/>
<path d="M236.667 161.167C236.667 159.234 238.234 157.667 240.167 157.667C242.1 157.667 243.667 159.234 243.667 161.167V277.833H236.667V161.167Z" fill="url(#paint7_linear_1_2919)"/>
<circle cx="240.167" cy="161.167" r="6.41667" fill="#FDBF00" stroke="white" stroke-width="1.16667"/>
</g>
</g>
<g filter="url(#filter1_d_1_2919)">
<rect x="236.667" y="34" width="64.1667" height="64.1667" rx="32.0833" fill="#FFF9F7"/>
<g clip-path="url(#clip1_1_2919)">
<path d="M275.305 71.9341L276.034 72.1052L278.402 78.9068C278.477 79.1234 278.302 79.345 278.073 79.321L274.755 78.9736C274.662 78.9639 274.57 78.996 274.504 79.0611L272.118 81.3939C271.954 81.5543 271.679 81.4896 271.604 81.273L269.221 74.4269L269.565 73.9217L275.305 71.9341Z" fill="#FF4755"/>
<path d="M269.221 74.4269L268.739 73.0436L275.554 70.726L276.035 72.1052C274.099 73.4861 271.756 74.3314 269.221 74.4269Z" fill="#FC2B3A"/>
<path d="M262.184 71.9341L261.454 72.1052L259.087 78.9068C259.012 79.1234 259.187 79.345 259.415 79.321L262.734 78.9736C262.826 78.9639 262.919 78.996 262.985 79.0611L265.371 81.3939C265.535 81.5543 265.81 81.4896 265.885 81.273L268.268 74.4269L267.923 73.9217L262.184 71.9341Z" fill="#FF4755"/>
<path d="M268.268 74.4269L268.75 73.0436L261.935 70.726L261.455 72.1052C263.39 73.4861 265.733 74.3314 268.268 74.4269Z" fill="#FC2B3A"/>
<path d="M268.748 72.2557C257.582 72.2557 257.573 61.4866 257.582 61.3C257.876 55.3871 262.763 50.6833 268.748 50.6833C274.734 50.6833 279.621 55.3871 279.914 61.3C279.924 61.4866 279.928 72.2557 268.748 72.2557Z" fill="#FFCB5B"/>
<path d="M268.75 71.9165C262.764 71.9165 257.877 67.2127 257.584 61.2999C257.575 61.4866 257.57 61.6744 257.57 61.8634C257.57 68.038 262.575 73.0435 268.75 73.0435C274.924 73.0435 279.93 68.038 279.93 61.8634C279.93 61.6744 279.925 61.4866 279.916 61.2999C279.622 67.2127 274.736 71.9165 268.75 71.9165Z" fill="#F7B737"/>
<path d="M268.75 69.935C259.96 69.935 259.948 61.4862 259.96 61.2999C260.25 56.6982 264.075 53.0558 268.75 53.0558C273.425 53.0558 277.249 56.6982 277.54 61.2999C277.551 61.4862 277.557 69.935 268.75 69.935Z" fill="#FF9838"/>
<path d="M268.75 69.5439C264.075 69.5439 260.251 65.9015 259.961 61.2999C259.949 61.4863 259.942 61.6741 259.942 61.8634C259.942 66.7277 263.885 70.671 268.75 70.671C273.614 70.671 277.557 66.7277 277.557 61.8634C277.557 61.674 277.551 61.4863 277.539 61.2999C277.248 65.9015 273.425 69.5439 268.75 69.5439Z" fill="#FF8709"/>
<path d="M269.556 57.5731L270.377 59.2375C270.508 59.5028 270.762 59.6868 271.054 59.7293L272.891 59.9962C273.629 60.1034 273.923 61.0097 273.39 61.5299L272.06 62.8254C271.848 63.032 271.752 63.3296 271.802 63.6213L272.116 65.4507C272.145 65.6242 272.068 65.9323 272.068 65.9323H270.811L268.75 64.7734L266.688 65.9323L265.442 65.9574C265.442 65.9574 265.352 65.6343 265.384 65.4506L265.698 63.6213C265.748 63.3296 265.651 63.032 265.439 62.8254L264.11 61.5299C263.576 61.0097 263.871 60.1034 264.608 59.9962L266.445 59.7293C266.738 59.6867 266.991 59.5028 267.122 59.2374L267.943 57.573C268.273 56.9048 269.226 56.9048 269.556 57.5731Z" fill="#FFF5F5"/>
<path d="M268.604 64.2645L265.432 65.9322C265.616 66.399 266.185 66.6634 266.688 66.3986L268.331 65.5349C268.593 65.3972 268.906 65.3972 269.168 65.5349L270.811 66.3986C271.315 66.6634 271.883 66.399 272.068 65.9322L268.895 64.2645C268.804 64.2165 268.695 64.2165 268.604 64.2645Z" fill="#EFE2DD"/>
</g>
</g>
<defs>
<filter id="filter0_d_1_2919" x="0" y="19" width="373.333" height="357" filterUnits="userSpaceOnUse" color-interpolation-filters="sRGB">
<feFlood flood-opacity="0" result="BackgroundImageFix"/>
<feColorMatrix in="SourceAlpha" type="matrix" values="0 0 0 0 0 0 0 0 0 0 0 0 0 0 0 0 0 0 127 0" result="hardAlpha"/>
<feOffset dx="-15" dy="20"/>
<feGaussianBlur stdDeviation="35"/>
<feComposite in2="hardAlpha" operator="out"/>
<feColorMatrix type="matrix" values="0 0 0 0 0 0 0 0 0 0 0 0 0 0 0.183333 0 0 0 0.03 0"/>
<feBlend mode="normal" in2="BackgroundImageFix" result="effect1_dropShadow_1_2919"/>
<feBlend mode="normal" in="SourceGraphic" in2="effect1_dropShadow_1_2919" result="shape"/>
</filter>
<filter id="filter1_d_1_2919" x="198.167" y="0.63333" width="141.167" height="141.167" filterUnits="userSpaceOnUse" color-interpolation-filters="sRGB">
<feFlood flood-opacity="0" result="BackgroundImageFix"/>
<feColorMatrix in="SourceAlpha" type="matrix" values="0 0 0 0 0 0 0 0 0 0 0 0 0 0 0 0 0 0 127 0" result="hardAlpha"/>
<feOffset dy="5.13333"/>
<feGaussianBlur stdDeviation="19.25"/>
<feComposite in2="hardAlpha" operator="out"/>
<feColorMatrix type="matrix" values="0 0 0 0 0.0235294 0 0 0 0 0.0235294 0 0 0 0 0.25098 0 0 0 0.1 0"/>
<feBlend mode="normal" in2="BackgroundImageFix" result="effect1_dropShadow_1_2919"/>
<feBlend mode="normal" in="SourceGraphic" in2="effect1_dropShadow_1_2919" result="shape"/>
</filter>
<linearGradient id="paint0_linear_1_2919" x1="111.833" y1="207.833" x2="111.833" y2="277.833" gradientUnits="userSpaceOnUse">
<stop stop-color="#DEEFFF"/>
<stop offset="1" stop-color="#DEEFFF" stop-opacity="0"/>
</linearGradient>
<linearGradient id="paint1_linear_1_2919" x1="137.5" y1="189.167" x2="137.5" y2="277.833" gradientUnits="userSpaceOnUse">
<stop stop-color="#DEEFFF"/>
<stop offset="1" stop-color="#DEEFFF" stop-opacity="0"/>
</linearGradient>
<linearGradient id="paint2_linear_1_2919" x1="163.167" y1="190.333" x2="163.167" y2="277.833" gradientUnits="userSpaceOnUse">
<stop stop-color="#DEEFFF"/>
<stop offset="1" stop-color="#DEEFFF" stop-opacity="0"/>
</linearGradient>
<linearGradient id="paint3_linear_1_2919" x1="188.833" y1="206.667" x2="188.833" y2="277.833" gradientUnits="userSpaceOnUse">
<stop stop-color="#DEEFFF"/>
<stop offset="1" stop-color="#DEEFFF" stop-opacity="0"/>
</linearGradient>
<linearGradient id="paint4_linear_1_2919" x1="214.5" y1="199.667" x2="214.5" y2="277.833" gradientUnits="userSpaceOnUse">
<stop stop-color="#DEEFFF"/>
<stop offset="1" stop-color="#DEEFFF" stop-opacity="0"/>
</linearGradient>
<linearGradient id="paint5_linear_1_2919" x1="265.833" y1="163.5" x2="265.833" y2="277.833" gradientUnits="userSpaceOnUse">
<stop stop-color="#DEEFFF"/>
<stop offset="1" stop-color="#DEEFFF" stop-opacity="0"/>
</linearGradient>
<linearGradient id="paint6_linear_1_2919" x1="291.5" y1="168.167" x2="291.5" y2="277.833" gradientUnits="userSpaceOnUse">
<stop stop-color="#DEEFFF"/>
<stop offset="1" stop-color="#DEEFFF" stop-opacity="0"/>
</linearGradient>
<linearGradient id="paint7_linear_1_2919" x1="240.167" y1="157.667" x2="240.167" y2="277.833" gradientUnits="userSpaceOnUse">
<stop stop-color="#DEEFFF"/>
<stop offset="1" stop-color="#DEEFFF" stop-opacity="0"/>
</linearGradient>
<clipPath id="clip0_1_2919">
<rect x="85" y="69" width="233.333" height="217" rx="10" fill="white"/>
</clipPath>
<clipPath id="clip1_1_2919">
<rect width="30.8" height="30.8" fill="white" transform="translate(253.35 50.6833)"/>
</clipPath>
</defs>
</svg>
